<svg width="43" height="43" viewBox="0 0 43 43" fill="none" xmlns="http://www.w3.org/2000/svg">
<g id="icon/github">
<path id="vector" fill-rule="evenodd" clip-rule="evenodd" d="M21.5 4.02527C11.6011 4.02527 3.58337 12.043 3.58337 21.9419C3.58337 29.8701 8.71202 36.5664 15.8339 38.9404C16.7297 39.0971 17.0657 38.5596 17.0657 38.0893C17.0657 37.6638 17.0433 36.2529 17.0433 34.7524C12.5417 35.581 11.3771 33.655 11.0188 32.6471C10.8172 32.132 9.94379 30.5419 9.18233 30.1164C8.55525 29.7805 7.65942 28.9518 9.15994 28.9294C10.5709 28.907 11.5787 30.2284 11.9146 30.7659C13.5271 33.4758 16.1026 32.7143 17.1329 32.244C17.2896 31.0794 17.7599 30.2956 18.275 29.8477C14.2886 29.3997 10.123 27.8544 10.123 21.0013C10.123 19.0529 10.8172 17.4404 11.9594 16.1862C11.7802 15.7383 11.1532 13.9018 12.1386 11.4383C12.1386 11.4383 13.6391 10.968 17.0657 13.2747C18.499 12.8716 20.0219 12.6701 21.5448 12.6701C23.0677 12.6701 24.5907 12.8716 26.024 13.2747C29.4506 10.9456 30.9511 11.4383 30.9511 11.4383C31.9365 13.9018 31.3094 15.7383 31.1302 16.1862C32.2724 17.4404 32.9667 19.0305 32.9667 21.0013C32.9667 27.8768 28.7787 29.3997 24.7922 29.8477C25.4417 30.4076 26.0016 31.4826 26.0016 33.1622C26.0016 35.5586 25.9792 37.4846 25.9792 38.0893C25.9792 38.5596 26.3151 39.1195 27.211 38.9404C30.7678 37.7396 33.8585 35.4537 36.048 32.4044C38.2376 29.3551 39.4157 25.6959 39.4167 21.9419C39.4167 12.043 31.399 4.02527 21.5 4.02527Z" fill="white"/>
</g>
</svg>
