<svg width="43" height="43" viewBox="0 0 43 43" fill="none" xmlns="http://www.w3.org/2000/svg">
<g id="icon/linkedin">
<path id="vector" d="M37.625 7.74632V35.2537C37.625 35.8826 37.3752 36.4857 36.9305 36.9305C36.4857 37.3752 35.8826 37.625 35.2537 37.625H7.74632C7.11741 37.625 6.51425 37.3752 6.06954 36.9305C5.62484 36.4857 5.375 35.8826 5.375 35.2537V7.74632C5.375 7.11741 5.62484 6.51425 6.06954 6.06954C6.51425 5.62484 7.11741 5.375 7.74632 5.375H35.2537C35.8826 5.375 36.4857 5.62484 36.9305 6.06954C37.3752 6.51425 37.625 7.11741 37.625 7.74632ZM14.8603 17.7059H10.1176V32.8824H14.8603V17.7059ZM15.2871 12.489C15.2896 12.1302 15.2214 11.7745 15.0865 11.4421C14.9515 11.1097 14.7524 10.8072 14.5005 10.5517C14.2485 10.2963 13.9488 10.093 13.6183 9.95342C13.2878 9.81384 12.9331 9.74072 12.5743 9.73824H12.489C11.7594 9.73824 11.0598 10.028 10.5439 10.5439C10.028 11.0598 9.73824 11.7594 9.73824 12.489C9.73824 13.2185 10.028 13.9182 10.5439 14.434C11.0598 14.9499 11.7594 15.2397 12.489 15.2397C12.8477 15.2485 13.2047 15.1866 13.5395 15.0574C13.8744 14.9282 14.1804 14.7343 14.4403 14.4868C14.7002 14.2393 14.9087 13.943 15.054 13.6148C15.1993 13.2867 15.2785 12.9331 15.2871 12.5743V12.489ZM32.8824 23.6626C32.8824 19.1002 29.9799 17.3265 27.0963 17.3265C26.1522 17.2792 25.2122 17.4803 24.37 17.9097C23.5279 18.3391 22.813 18.9818 22.2968 19.7737H22.164V17.7059H17.7059V32.8824H22.4485V24.8104C22.38 23.9837 22.6404 23.1633 23.1732 22.5275C23.706 21.8917 24.4682 21.4918 25.2941 21.4146H25.4743C26.9825 21.4146 28.1018 22.3632 28.1018 24.7535V32.8824H32.8444L32.8824 23.6626Z" fill="white"/>
</g>
</svg>
